<?xml version="1.0" standalone="no"?>
<!DOCTYPE svg PUBLIC "-//W3C//DTD SVG 20010904//EN"
 "http://www.w3.org/TR/2001/REC-SVG-20010904/DTD/svg10.dtd">
<svg version="1.0" xmlns="http://www.w3.org/2000/svg"
 width="512.000000pt" height="512.000000pt" viewBox="0 0 512.000000 512.000000"
 preserveAspectRatio="xMidYMid meet">
<metadata>
Created by potrace 1.11, written by Peter Selinger 2001-2013
</metadata>
<g transform="translate(0.000000,512.000000) scale(0.100000,-0.100000)"
fill="#000000" stroke="none">
<path d="M4356 4605 c-69 -24 -120 -80 -181 -202 -53 -106 -87 -134 -164 -134
-38 -1 -64 9 -144 55 -165 94 -270 134 -447 170 -90 18 -290 24 -396 12 -138
-17 -295 -69 -379 -126 -37 -25 -117 -27 -160 -4 -193 105 -334 138 -565 137
-237 -2 -473 -69 -674 -192 -75 -46 -99 -54 -150 -53 -64 3 -101 36 -152 137
-47 94 -104 164 -157 191 -46 24 -133 13 -210 -26 -164 -83 -304 -240 -412
-458 -42 -85 -99 -239 -109 -294 -2 -15 -7 -31 -9 -35 -5 -8 -9 -33 -23 -120
-3 -21 -7 -49 -10 -63 -3 -14 -7 -79 -11 -144 l-6 -119 34 24 c132 93 438 414
583 611 73 100 226 87 276 -24 24 -54 19 -98 -24 -190 -61 -134 -123 -328
-142 -443 -3 -20 -8 -47 -10 -59 -8 -40 -5 -213 5 -239 15 -38 5 -164 -17
-227 -27 -76 -76 -172 -168 -325 -162 -270 -232 -433 -259 -597 -15 -91 -12
-227 5 -304 7 -27 13 -57 15 -67 7 -32 78 -191 109 -242 131 -218 446 -535
542 -545 38 -4 44 1 78 73 37 77 64 164 121 377 84 318 150 509 235 684 42 86
50 108 41 125 -27 49 -40 158 -37 291 6 199 31 272 106 310 78 40 167 14 210
-62 20 -35 22 -49 16 -114 -4 -40 -10 -82 -13 -91 -6 -14 -2 -13 23 5 131 100
213 150 314 190 61 24 191 60 242 68 18 2 62 8 98 13 96 14 361 6 459 -14 195
-38 359 -109 496 -213 44 -33 80 -60 81 -59 1 1 -2 27 -8 57 -13 75 -10 116
11 159 37 71 146 103 216 62 71 -42 98 -127 99 -321 1 -136 -7 -212 -30 -266
-15 -35 -14 -38 31 -131 93 -193 155 -376 254 -753 55 -211 102 -336 141 -377
20 -22 23 -22 56 -8 45 18 124 76 184 131 25 24 54 51 65 61 12 10 55 56 96
103 275 313 370 597 303 910 -28 128 -100 293 -206 469 -21 34 -38 65 -38 67
0 2 -15 28 -34 57 -47 74 -121 221 -143 287 -19 58 -24 173 -9 245 8 44 9 163
1 210 -3 17 -10 53 -16 81 -5 28 -12 63 -15 79 -3 15 -9 35 -13 44 -5 9 -9 18
-9 21 0 29 -76 238 -117 320 -39 80 -19 166 52 215 67 45 165 28 215 -37 171
-228 499 -570 606 -632 23 -14 3 252 -32 409 -78 358 -258 643 -501 796 -97
61 -156 75 -219 54z m-2645 -1111 c170 -87 157 -337 -20 -411 -46 -19 -132
-18 -176 3 -76 36 -135 126 -135 207 0 88 76 193 156 215 51 15 133 8 175 -14z
m1889 7 c178 -77 183 -323 8 -412 -49 -25 -143 -27 -186 -5 -164 85 -184 283
-40 395 53 40 153 51 218 22z m-915 -458 c99 -32 191 -106 222 -180 63 -152
-82 -253 -354 -248 -149 3 -209 16 -279 57 -77 45 -96 139 -45 219 89 141 285
207 456 152z"/>
<path d="M2335 2249 c-422 -82 -636 -338 -831 -994 -52 -177 -120 -433 -116
-444 6 -18 119 -95 198 -134 114 -57 315 -118 439 -132 32 -3 62 -8 65 -10 6
-3 128 -15 215 -21 95 -7 453 -6 530 1 87 7 222 23 255 30 14 3 41 8 60 11
111 17 288 73 385 122 107 53 212 132 201 150 -3 5 -37 121 -75 258 -38 137
-81 285 -96 329 -108 331 -241 547 -420 682 -67 50 -185 113 -213 113 -10 0
-22 4 -28 9 -21 21 -184 44 -329 46 -110 1 -174 -3 -240 -16z"/>
</g>
</svg>
